<svg width="85" height="85" viewBox="0 0 85 85" fill="none" xmlns="http://www.w3.org/2000/svg">
<path d="M42.5 8.64062C51.5433 8.64063 60.0391 12.1485 66.4453 18.5547C72.839 24.9484 76.3594 33.4567 76.3594 42.5C76.3594 51.5433 72.8515 60.0391 66.4453 66.4453C60.0516 72.839 51.5433 76.3594 42.5 76.3594C33.4567 76.3594 24.9609 72.8515 18.5547 66.4453C12.161 60.0516 8.64063 51.5433 8.64062 42.5C8.64062 33.4567 12.1485 24.9609 18.5547 18.5547C24.9484 12.161 33.4567 8.64062 42.5 8.64062ZM45.1992 31.7275C44.3287 31.4913 43.4083 31.3799 42.4756 31.3799C41.5427 31.3799 40.6217 31.5161 39.751 31.7275V14.4873C34.029 15.0346 28.804 17.298 24.5996 20.7686L36.79 32.959C35.2104 33.9043 33.8799 35.2357 32.9346 36.8154L20.7441 24.625C17.2737 28.8293 15.0217 34.066 14.4619 39.7754H31.7148C31.4785 40.6461 31.3672 41.5671 31.3672 42.5C31.3672 43.4329 31.5034 44.3539 31.7148 45.2246H14.4746C15.022 50.9464 17.2864 56.1707 20.7568 60.375L32.9463 48.1846C33.8917 49.7643 35.223 51.0956 36.8027 52.041L24.6123 64.2314C28.8167 67.702 34.0541 69.9529 39.7637 70.5127V53.2725C40.6342 53.5087 41.5546 53.6201 42.4873 53.6201C43.4202 53.6201 44.3412 53.4839 45.2119 53.2725V70.5127C50.9337 69.9654 56.158 67.6893 60.3623 64.2314L48.1719 52.041C49.7516 51.0956 51.0829 49.7643 52.0283 48.1846L64.2109 60.3672C67.6781 56.164 69.9288 50.9309 70.4883 45.2246H53.2471C53.4834 44.3539 53.5957 43.4329 53.5957 42.5C53.5957 41.5671 53.4585 40.6461 53.2471 39.7754H70.4883C69.9409 34.0535 67.6641 28.8293 64.2061 24.625L52.0156 36.8154C51.0703 35.2357 49.7398 33.9043 48.1602 32.959L60.3506 20.7686C56.1462 17.298 50.9088 15.0471 45.1992 14.4873V31.7275ZM42.501 33.8174C47.2962 33.8174 51.1836 37.7048 51.1836 42.5C51.1836 47.2952 47.2962 51.1826 42.501 51.1826C37.7059 51.1825 33.8184 47.2951 33.8184 42.5C33.8184 37.7049 37.7059 33.8175 42.501 33.8174Z" fill="black"/>
</svg>
